<svg width="32" height="33" viewBox="0 0 32 33" fill="none" xmlns="http://www.w3.org/2000/svg">
<path d="M16 1.25C24.2843 1.25 31 7.96573 31 16.25C31 24.5343 24.2843 31.25 16 31.25C7.71573 31.25 1 24.5343 1 16.25C1 7.96573 7.71573 1.25 16 1.25Z" stroke="#D4D4D4" stroke-width="2"/>
<path d="M16 6.25C21.5228 6.25 26 10.7272 26 16.25C26 21.7728 21.5228 26.25 16 26.25C10.4772 26.25 6 21.7728 6 16.25C6 10.7272 10.4772 6.25 16 6.25Z" fill="#171717"/>
<path d="M16 6.25C21.5228 6.25 26 10.7272 26 16.25C26 21.7728 21.5228 26.25 16 26.25C10.4772 26.25 6 21.7728 6 16.25C6 10.7272 10.4772 6.25 16 6.25Z" stroke="#171717"/>
</svg>
