<svg width="67" height="60" viewBox="0 0 67 60" fill="none" xmlns="http://www.w3.org/2000/svg">
<path d="M37 0C53.5685 0 67 13.4315 67 30C67 46.5685 53.5685 60 37 60C20.4315 60 7 46.5685 7 30C7 13.4315 20.4315 0 37 0Z" fill="#171717"/>
<path d="M37 0C53.5685 0 67 13.4315 67 30C67 46.5685 53.5685 60 37 60C20.4315 60 7 46.5685 7 30C7 13.4315 20.4315 0 37 0Z" stroke="#E5E7EB"/>
<path d="M15.4091 36V24.3636H22.3864V25.6136H16.8182V29.5455H21.8636V30.7955H16.8182V36H15.4091ZM26.2088 24.3636V36H24.7997V24.3636H26.2088ZM29.0341 36V24.3636H36.0568V25.6136H30.4432V29.5455H35.6932V30.7955H30.4432V34.75H36.1477V36H29.0341ZM38.5966 36V24.3636H42.5284C43.4375 24.3636 44.1837 24.5189 44.767 24.8295C45.3504 25.1364 45.7822 25.5587 46.0625 26.0966C46.3428 26.6345 46.483 27.2462 46.483 27.9318C46.483 28.6174 46.3428 29.2254 46.0625 29.7557C45.7822 30.286 45.3523 30.7027 44.7727 31.0057C44.1932 31.3049 43.4527 31.4545 42.5511 31.4545H39.3693V30.1818H42.5057C43.1269 30.1818 43.6269 30.0909 44.0057 29.9091C44.3883 29.7273 44.6648 29.4697 44.8352 29.1364C45.0095 28.7992 45.0966 28.3977 45.0966 27.9318C45.0966 27.4659 45.0095 27.0587 44.8352 26.7102C44.661 26.3617 44.3826 26.0928 44 25.9034C43.6174 25.7102 43.1117 25.6136 42.483 25.6136H40.0057V36H38.5966ZM44.0739 30.7727L46.9375 36H45.3011L42.483 30.7727H44.0739ZM58.6491 30.1818C58.6491 31.4091 58.4276 32.4697 57.9844 33.3636C57.5412 34.2576 56.9332 34.947 56.1605 35.4318C55.3878 35.9167 54.5052 36.1591 53.5128 36.1591C52.5204 36.1591 51.6378 35.9167 50.8651 35.4318C50.0923 34.947 49.4844 34.2576 49.0412 33.3636C48.598 32.4697 48.3764 31.4091 48.3764 30.1818C48.3764 28.9545 48.598 27.8939 49.0412 27C49.4844 26.1061 50.0923 25.4167 50.8651 24.9318C51.6378 24.447 52.5204 24.2045 53.5128 24.2045C54.5052 24.2045 55.3878 24.447 56.1605 24.9318C56.9332 25.4167 57.5412 26.1061 57.9844 27C58.4276 27.8939 58.6491 28.9545 58.6491 30.1818ZM57.2855 30.1818C57.2855 29.1742 57.117 28.3239 56.7798 27.6307C56.4465 26.9375 55.9938 26.4129 55.4219 26.0568C54.8537 25.7008 54.2173 25.5227 53.5128 25.5227C52.8082 25.5227 52.17 25.7008 51.598 26.0568C51.0298 26.4129 50.5772 26.9375 50.2401 27.6307C49.9067 28.3239 49.7401 29.1742 49.7401 30.1818C49.7401 31.1894 49.9067 32.0398 50.2401 32.733C50.5772 33.4261 51.0298 33.9508 51.598 34.3068C52.17 34.6629 52.8082 34.8409 53.5128 34.8409C54.2173 34.8409 54.8537 34.6629 55.4219 34.3068C55.9938 33.9508 56.4465 33.4261 56.7798 32.733C57.117 32.0398 57.2855 31.1894 57.2855 30.1818Z" fill="white"/>
</svg>
