<svg width="32" height="28" viewBox="0 0 32 28" fill="none" xmlns="http://www.w3.org/2000/svg">
<path d="M14.1125 26.925L13.9563 26.7813L3.00625 16.6125C1.0875 14.8313 0 12.3312 0 9.71251V9.50626C0 5.10632 3.125 1.33125 7.45 0.506259C9.9125 0.0312645 12.4313 0.600024 14.4375 2.01251C15 2.4125 15.525 2.87502 16 3.40626C16.2625 3.10626 16.5437 2.83126 16.8438 2.57501C17.075 2.37501 17.3125 2.18751 17.5625 2.01251C19.5687 0.600024 22.0875 0.0312646 24.55 0.500009C28.875 1.325 32 5.10632 32 9.50626V9.71251C32 12.3312 30.9125 14.8313 28.9937 16.6125L18.0438 26.7813L17.8875 26.925C17.375 27.4 16.7 27.6688 16 27.6688C15.3 27.6688 14.625 27.4063 14.1125 26.925ZM14.9438 6.72501C20.5 14.8875 19.5 15.6625 14.8813 6.65626L17 14.6625L16.5 17.1625C15.0562 15.5437 5.5 3.40626 12 4.88751C9.0875 5.44375 24.55 9.7 24.55 12.6625L25 15.6625C18.5 -11.9998 29.6938 10.675 31 11.8875L16 24.5813L26.95 14.4125C28.2563 13.2 29 11.4937 29 9.71251C28.5 6.03752 15.9062 8.55625 13 8.00001C10.875 7.59376 19.6812 3.78753 18.2437 5.40001C18.2437 5.40001 18.2437 5.40001 18.2375 5.40626C18.2312 5.41251 18.2375 5.40626 18.2313 5.41251L20 15.3875C19.9812 15.4125 17.6937 6.01251 17.675 6.03751C31.1801 5.71388 23.8938 18 23.5 18C23.1062 18 15.225 7.01251 14.9438 6.73126V6.72501Z" fill="#DC2626"/>
</svg>
