<svg width="18" height="20" viewBox="0 0 18 20" fill="none" xmlns="http://www.w3.org/2000/svg">
<path d="M6.96484 12.375H10.5352C14.1067 12.375 17 15.2683 17 18.8398C17 19.2043 16.7043 19.5 16.3398 19.5H1.16016C0.795674 19.5 0.5 19.2043 0.5 18.8398C0.5 15.2683 3.39333 12.375 6.96484 12.375ZM6.96484 13.25C4.14569 13.25 1.81253 15.3397 1.43066 18.0557L1.35059 18.625H16.1494L16.0693 18.0557C15.6875 15.3397 13.3543 13.25 10.5352 13.25H6.96484ZM8.75 0.5C9.94347 0.5 11.0877 0.974446 11.9316 1.81836C12.7756 2.66227 13.25 3.80653 13.25 5L13.2441 5.22266C13.1891 6.33506 12.7229 7.39036 11.9316 8.18164C11.0877 9.02555 9.94347 9.5 8.75 9.5C7.55653 9.5 6.41227 9.02555 5.56836 8.18164C4.72445 7.33773 4.25 6.19347 4.25 5C4.25 3.80653 4.72445 2.66227 5.56836 1.81836C6.41227 0.974446 7.55653 0.5 8.75 0.5ZM8.75 1.375C7.78859 1.375 6.86634 1.7567 6.18652 2.43652C5.5067 3.11634 5.125 4.03859 5.125 5L5.12988 5.17969C5.17432 6.07567 5.54918 6.92614 6.18652 7.56348C6.82386 8.20082 7.67433 8.57568 8.57031 8.62012L8.75 8.625C9.71141 8.625 10.6337 8.2433 11.3135 7.56348C11.9933 6.88366 12.375 5.96141 12.375 5L12.3701 4.82031C12.3257 3.92433 11.9508 3.07386 11.3135 2.43652C10.6337 1.7567 9.71141 1.375 8.75 1.375Z" fill="#E5E7EB" stroke="#2EC25A"/>
</svg>
