<svg width="15" height="16" viewBox="0 0 15 16" fill="none" xmlns="http://www.w3.org/2000/svg">
<g clip-path="url(#clip0_16_1963)">
<path d="M5.40625 3.5C5.40625 2.39687 6.30312 1.5 7.40625 1.5C8.50937 1.5 9.40625 2.39687 9.40625 3.5V5H5.40625V3.5ZM3.90625 5H1.90625C1.07812 5 0.40625 5.67188 0.40625 6.5V13C0.40625 14.6562 1.75 16 3.40625 16H11.4062C13.0625 16 14.4062 14.6562 14.4062 13V6.5C14.4062 5.67188 13.7344 5 12.9062 5H10.9062V3.5C10.9062 1.56562 9.34062 0 7.40625 0C5.47188 0 3.90625 1.56562 3.90625 3.5V5ZM4.65625 6.5C4.85516 6.5 5.04593 6.57902 5.18658 6.71967C5.32723 6.86032 5.40625 7.05109 5.40625 7.25C5.40625 7.44891 5.32723 7.63968 5.18658 7.78033C5.04593 7.92098 4.85516 8 4.65625 8C4.45734 8 4.26657 7.92098 4.12592 7.78033C3.98527 7.63968 3.90625 7.44891 3.90625 7.25C3.90625 7.05109 3.98527 6.86032 4.12592 6.71967C4.26657 6.57902 4.45734 6.5 4.65625 6.5ZM9.40625 7.25C9.40625 7.05109 9.48527 6.86032 9.62592 6.71967C9.76657 6.57902 9.95734 6.5 10.1562 6.5C10.3552 6.5 10.5459 6.57902 10.6866 6.71967C10.8272 6.86032 10.9062 7.05109 10.9062 7.25C10.9062 7.44891 10.8272 7.63968 10.6866 7.78033C10.5459 7.92098 10.3552 8 10.1562 8C9.95734 8 9.76657 7.92098 9.62592 7.78033C9.48527 7.63968 9.40625 7.44891 9.40625 7.25Z" fill="white"/>
</g>
<defs>
<clipPath id="clip0_16_1963">
<path d="M0.40625 0H14.4062V16H0.40625V0Z" fill="white"/>
</clipPath>
</defs>
</svg>
