<svg width="32" height="33" viewBox="0 0 32 33" fill="none" xmlns="http://www.w3.org/2000/svg">
<path d="M16 1.25C24.2843 1.25 31 7.96573 31 16.25C31 24.5343 24.2843 31.25 16 31.25C7.71573 31.25 1 24.5343 1 16.25C1 7.96573 7.71573 1.25 16 1.25Z" stroke="#171717" stroke-width="2"/>
<path d="M16 6.75C21.2467 6.75 25.5 11.0033 25.5 16.25C25.5 21.4967 21.2467 25.75 16 25.75C10.7533 25.75 6.5 21.4967 6.5 16.25C6.5 11.0033 10.7533 6.75 16 6.75Z" fill="white"/>
<path d="M16 6.75C21.2467 6.75 25.5 11.0033 25.5 16.25C25.5 21.4967 21.2467 25.75 16 25.75C10.7533 25.75 6.5 21.4967 6.5 16.25C6.5 11.0033 10.7533 6.75 16 6.75Z" stroke="#171717"/>
</svg>
