<svg width="11" height="12" viewBox="0 0 11 12" fill="none" xmlns="http://www.w3.org/2000/svg">
<g clip-path="url(#clip0_35_457)">
<path d="M10.7484 6.52974C11.0414 6.23677 11.0414 5.76099 10.7484 5.46802L6.99844 1.71802C6.70547 1.42505 6.22969 1.42505 5.93672 1.71802C5.64375 2.01099 5.64375 2.48677 5.93672 2.77974L8.40937 5.25005H1.21875C0.803906 5.25005 0.46875 5.58521 0.46875 6.00005C0.46875 6.41489 0.803906 6.75005 1.21875 6.75005H8.40703L5.93906 9.22036C5.64609 9.51333 5.64609 9.98911 5.93906 10.2821C6.23203 10.575 6.70781 10.575 7.00078 10.2821L10.7508 6.53208L10.7484 6.52974Z" fill="#262626"/>
</g>
<defs>
<clipPath id="clip0_35_457">
<path d="M0.46875 0H10.9688V12H0.46875V0Z" fill="white"/>
</clipPath>
</defs>
</svg>
